<svg viewBox="0 0 150 100" xmlns="http://www.w3.org/2000/svg">
   <defs>
    <linearGradient id="gradient" x1="0%" y1="0%" x2="0%" y2="100%">
      <stop offset="0%" stop-color="#00bc9b" />
      <stop offset="100%" stop-color="#5eaefd" />
    </linearGradient>
  </defs>

  <style>
    .node-color { fill: #0BD476; }
    .edge-color { stroke: #0BD476; }
  </style>
  
  <polygon points="10,30 50,10 80,30 120,10 120,60 80,80 50,60 10,80"
    stroke="url(#gradient)" 
    stroke-width="5"
    fill="none"
  />

  <line x1="50" y1="45" x2="25" y2="50" class="edge-color" stroke-width="1" />

  <line x1="50" y1="45" x2="40" y2="30" class="edge-color" stroke-width="1" />
  <line x1="50" y1="45" x2="50" y2="25" class="edge-color" stroke-width="1" />
  <line x1="50" y1="45" x2="60" y2="30" class="edge-color" stroke-width="1" />

  <line x1="50" y1="45" x2="80" y2="60" class="edge-color" stroke-width="1" />

  <line x1="80" y1="60" x2="85" y2="45" class="edge-color" stroke-width="1" />
  <line x1="85" y1="45" x2="100" y2="55" class="edge-color" stroke-width="1" />
  <line x1="100" y1="55" x2="80" y2="60" class="edge-color" stroke-width="1" />

  <line x1="100" y1="55" x2="110" y2="30" class="edge-color" stroke-width="1" />

  <circle cx="50" cy="45" r="4" class="node-color"/>
  <circle cx="40" cy="30" r="2" class="node-color"/>
  <circle cx="50" cy="25" r="2" class="node-color"/>
  <circle cx="60" cy="30" r="2" class="node-color"/>

  <circle cx="25" cy="50" r="4" class="node-color"/>

  <circle cx="80" cy="60" r="4" class="node-color"/>
  <circle cx="85" cy="45" r="4" class="node-color"/>
  <circle cx="100" cy="55" r="4" class="node-color"/>

  <circle cx="110" cy="30" r="2" class="node-color"/>

</svg>